<mxfile host="app.diagrams.net" modified="2023-12-21T16:13:21.962Z" agent="Mozilla/5.0 (Windows NT 10.0; Win64; x64) AppleWebKit/537.36 (KHTML, like Gecko) Chrome/120.0.0.0 Safari/537.36" etag="NYAb3NfgIaOe0r4zAWiT" version="22.1.11" type="google">
  <diagram name="第 1 页" id="P23D2HBNR8polDk7l7_Y">
    <mxGraphModel grid="0" page="0" gridSize="10" guides="1" tooltips="1" connect="1" arrows="1" fold="1" pageScale="1" pageWidth="827" pageHeight="1169" math="0" shadow="0">
      <root>
        <mxCell id="0" />
        <mxCell id="1" parent="0" />
        <mxCell id="XRtyFWbsG8zuHKmCHHdk-1" value="美食信息" style="rounded=1;whiteSpace=wrap;html=1;fontSize=16;" vertex="1" parent="1">
          <mxGeometry x="267.5" y="474" width="105" height="33" as="geometry" />
        </mxCell>
        <mxCell id="XRtyFWbsG8zuHKmCHHdk-2" value="" style="ellipse;whiteSpace=wrap;html=1;fontSize=16;rotation=60;" vertex="1" parent="1">
          <mxGeometry x="-52" y="89" width="82" height="63" as="geometry" />
        </mxCell>
        <mxCell id="XRtyFWbsG8zuHKmCHHdk-3" value="" style="ellipse;whiteSpace=wrap;html=1;fontSize=16;rotation=75;" vertex="1" parent="1">
          <mxGeometry x="5" y="35" width="82" height="63" as="geometry" />
        </mxCell>
        <mxCell id="XRtyFWbsG8zuHKmCHHdk-4" value="" style="ellipse;whiteSpace=wrap;html=1;fontSize=16;rotation=90;" vertex="1" parent="1">
          <mxGeometry x="245" y="-60" width="82" height="63" as="geometry" />
        </mxCell>
        <mxCell id="XRtyFWbsG8zuHKmCHHdk-5" value="" style="ellipse;whiteSpace=wrap;html=1;fontSize=16;rotation=75;" vertex="1" parent="1">
          <mxGeometry x="163" y="-35" width="82" height="63" as="geometry" />
        </mxCell>
        <mxCell id="XRtyFWbsG8zuHKmCHHdk-6" value="" style="ellipse;whiteSpace=wrap;html=1;fontSize=16;rotation=75;" vertex="1" parent="1">
          <mxGeometry x="81" y="-6" width="82" height="63" as="geometry" />
        </mxCell>
        <mxCell id="XRtyFWbsG8zuHKmCHHdk-7" value="" style="ellipse;whiteSpace=wrap;html=1;fontSize=16;rotation=105;" vertex="1" parent="1">
          <mxGeometry x="418" y="-6" width="82" height="63" as="geometry" />
        </mxCell>
        <mxCell id="XRtyFWbsG8zuHKmCHHdk-8" value="" style="ellipse;whiteSpace=wrap;html=1;fontSize=16;rotation=105;" vertex="1" parent="1">
          <mxGeometry x="336" y="-35" width="82" height="63" as="geometry" />
        </mxCell>
        <mxCell id="XRtyFWbsG8zuHKmCHHdk-9" value="" style="ellipse;whiteSpace=wrap;html=1;fontSize=16;rotation=105;" vertex="1" parent="1">
          <mxGeometry x="500" y="35" width="82" height="63" as="geometry" />
        </mxCell>
        <mxCell id="XRtyFWbsG8zuHKmCHHdk-10" value="" style="ellipse;whiteSpace=wrap;html=1;fontSize=16;rotation=130;" vertex="1" parent="1">
          <mxGeometry x="560" y="89" width="82" height="63" as="geometry" />
        </mxCell>
        <mxCell id="XRtyFWbsG8zuHKmCHHdk-11" value="商品&lt;br&gt;分類" style="text;strokeColor=none;fillColor=none;html=1;align=center;verticalAlign=middle;whiteSpace=wrap;rounded=0;fontSize=16;" vertex="1" parent="1">
          <mxGeometry x="-33.5" y="98" width="45" height="50" as="geometry" />
        </mxCell>
        <mxCell id="XRtyFWbsG8zuHKmCHHdk-12" value="食材" style="text;strokeColor=none;fillColor=none;html=1;align=center;verticalAlign=middle;whiteSpace=wrap;rounded=0;fontSize=16;" vertex="1" parent="1">
          <mxGeometry x="27.5" y="51.5" width="37" height="30" as="geometry" />
        </mxCell>
        <mxCell id="XRtyFWbsG8zuHKmCHHdk-13" value="日期" style="text;strokeColor=none;fillColor=none;html=1;align=center;verticalAlign=middle;whiteSpace=wrap;rounded=0;fontSize=16;" vertex="1" parent="1">
          <mxGeometry x="104" y="5.5" width="36" height="40" as="geometry" />
        </mxCell>
        <mxCell id="XRtyFWbsG8zuHKmCHHdk-14" value="商家&lt;br&gt;帳號" style="text;strokeColor=none;fillColor=none;html=1;align=center;verticalAlign=middle;whiteSpace=wrap;rounded=0;fontSize=16;" vertex="1" parent="1">
          <mxGeometry x="183" y="-21" width="42" height="35" as="geometry" />
        </mxCell>
        <mxCell id="XRtyFWbsG8zuHKmCHHdk-15" value="店鋪名稱" style="text;strokeColor=none;fillColor=none;html=1;align=center;verticalAlign=middle;whiteSpace=wrap;rounded=0;fontSize=16;" vertex="1" parent="1">
          <mxGeometry x="267.5" y="-46.5" width="37" height="36" as="geometry" />
        </mxCell>
        <mxCell id="XRtyFWbsG8zuHKmCHHdk-16" value="店鋪地址" style="text;strokeColor=none;fillColor=none;html=1;align=center;verticalAlign=middle;whiteSpace=wrap;rounded=0;fontSize=16;" vertex="1" parent="1">
          <mxGeometry x="357" y="-21" width="40" height="35" as="geometry" />
        </mxCell>
        <mxCell id="XRtyFWbsG8zuHKmCHHdk-17" value="單限" style="text;strokeColor=none;fillColor=none;html=1;align=center;verticalAlign=middle;whiteSpace=wrap;rounded=0;fontSize=16;" vertex="1" parent="1">
          <mxGeometry x="436" y="5.5" width="46" height="40" as="geometry" />
        </mxCell>
        <mxCell id="XRtyFWbsG8zuHKmCHHdk-18" value="庫存" style="text;strokeColor=none;fillColor=none;html=1;align=center;verticalAlign=middle;whiteSpace=wrap;rounded=0;fontSize=16;" vertex="1" parent="1">
          <mxGeometry x="519.5" y="46.5" width="43" height="40" as="geometry" />
        </mxCell>
        <mxCell id="XRtyFWbsG8zuHKmCHHdk-19" value="讚" style="text;strokeColor=none;fillColor=none;html=1;align=center;verticalAlign=middle;whiteSpace=wrap;rounded=0;fontSize=16;" vertex="1" parent="1">
          <mxGeometry x="580.5" y="103.5" width="41" height="39" as="geometry" />
        </mxCell>
        <mxCell id="XRtyFWbsG8zuHKmCHHdk-20" value="" style="ellipse;whiteSpace=wrap;html=1;fontSize=16;rotation=130;" vertex="1" parent="1">
          <mxGeometry x="618" y="148" width="82" height="63" as="geometry" />
        </mxCell>
        <mxCell id="XRtyFWbsG8zuHKmCHHdk-21" value="雷" style="text;strokeColor=none;fillColor=none;html=1;align=center;verticalAlign=middle;whiteSpace=wrap;rounded=0;fontSize=16;" vertex="1" parent="1">
          <mxGeometry x="638" y="165" width="42" height="29" as="geometry" />
        </mxCell>
        <mxCell id="XRtyFWbsG8zuHKmCHHdk-22" value="" style="endArrow=none;html=1;rounded=0;fontSize=12;startSize=8;endSize=8;curved=1;entryX=1;entryY=0.5;entryDx=0;entryDy=0;exitX=0.5;exitY=0;exitDx=0;exitDy=0;" edge="1" parent="1" source="XRtyFWbsG8zuHKmCHHdk-1" target="XRtyFWbsG8zuHKmCHHdk-2">
          <mxGeometry width="50" height="50" relative="1" as="geometry">
            <mxPoint x="261" y="137" as="sourcePoint" />
            <mxPoint x="311" y="87" as="targetPoint" />
          </mxGeometry>
        </mxCell>
        <mxCell id="XRtyFWbsG8zuHKmCHHdk-23" value="" style="endArrow=none;html=1;rounded=0;fontSize=12;startSize=8;endSize=8;curved=1;exitX=1;exitY=0.5;exitDx=0;exitDy=0;entryX=0.5;entryY=0;entryDx=0;entryDy=0;" edge="1" parent="1" source="XRtyFWbsG8zuHKmCHHdk-3" target="XRtyFWbsG8zuHKmCHHdk-1">
          <mxGeometry width="50" height="50" relative="1" as="geometry">
            <mxPoint x="261" y="137" as="sourcePoint" />
            <mxPoint x="311" y="87" as="targetPoint" />
          </mxGeometry>
        </mxCell>
        <mxCell id="XRtyFWbsG8zuHKmCHHdk-24" value="" style="endArrow=none;html=1;rounded=0;fontSize=12;startSize=8;endSize=8;curved=1;exitX=1;exitY=0.5;exitDx=0;exitDy=0;entryX=0.5;entryY=0;entryDx=0;entryDy=0;" edge="1" parent="1" source="XRtyFWbsG8zuHKmCHHdk-6" target="XRtyFWbsG8zuHKmCHHdk-1">
          <mxGeometry width="50" height="50" relative="1" as="geometry">
            <mxPoint x="261" y="137" as="sourcePoint" />
            <mxPoint x="307" y="87" as="targetPoint" />
          </mxGeometry>
        </mxCell>
        <mxCell id="XRtyFWbsG8zuHKmCHHdk-25" value="" style="endArrow=none;html=1;rounded=0;fontSize=12;startSize=8;endSize=8;curved=1;exitX=1;exitY=0.5;exitDx=0;exitDy=0;entryX=0.5;entryY=0;entryDx=0;entryDy=0;" edge="1" parent="1" source="XRtyFWbsG8zuHKmCHHdk-5" target="XRtyFWbsG8zuHKmCHHdk-1">
          <mxGeometry width="50" height="50" relative="1" as="geometry">
            <mxPoint x="261" y="137" as="sourcePoint" />
            <mxPoint x="311" y="87" as="targetPoint" />
          </mxGeometry>
        </mxCell>
        <mxCell id="XRtyFWbsG8zuHKmCHHdk-26" value="" style="endArrow=none;html=1;rounded=0;fontSize=12;startSize=8;endSize=8;curved=1;entryX=1;entryY=0.5;entryDx=0;entryDy=0;exitX=0.5;exitY=0;exitDx=0;exitDy=0;" edge="1" parent="1" source="XRtyFWbsG8zuHKmCHHdk-1" target="XRtyFWbsG8zuHKmCHHdk-4">
          <mxGeometry width="50" height="50" relative="1" as="geometry">
            <mxPoint x="261" y="137" as="sourcePoint" />
            <mxPoint x="311" y="87" as="targetPoint" />
          </mxGeometry>
        </mxCell>
        <mxCell id="XRtyFWbsG8zuHKmCHHdk-27" value="" style="endArrow=none;html=1;rounded=0;fontSize=12;startSize=8;endSize=8;curved=1;entryX=1;entryY=0.5;entryDx=0;entryDy=0;exitX=0.5;exitY=0;exitDx=0;exitDy=0;" edge="1" parent="1" source="XRtyFWbsG8zuHKmCHHdk-1" target="XRtyFWbsG8zuHKmCHHdk-8">
          <mxGeometry width="50" height="50" relative="1" as="geometry">
            <mxPoint x="261" y="137" as="sourcePoint" />
            <mxPoint x="311" y="87" as="targetPoint" />
          </mxGeometry>
        </mxCell>
        <mxCell id="XRtyFWbsG8zuHKmCHHdk-28" value="" style="endArrow=none;html=1;rounded=0;fontSize=12;startSize=8;endSize=8;curved=1;entryX=1;entryY=0.5;entryDx=0;entryDy=0;exitX=0.5;exitY=0;exitDx=0;exitDy=0;" edge="1" parent="1" source="XRtyFWbsG8zuHKmCHHdk-1" target="XRtyFWbsG8zuHKmCHHdk-7">
          <mxGeometry width="50" height="50" relative="1" as="geometry">
            <mxPoint x="261" y="137" as="sourcePoint" />
            <mxPoint x="311" y="87" as="targetPoint" />
          </mxGeometry>
        </mxCell>
        <mxCell id="XRtyFWbsG8zuHKmCHHdk-29" value="" style="endArrow=none;html=1;rounded=0;fontSize=12;startSize=8;endSize=8;curved=1;entryX=1;entryY=0.5;entryDx=0;entryDy=0;exitX=0.5;exitY=0;exitDx=0;exitDy=0;" edge="1" parent="1" source="XRtyFWbsG8zuHKmCHHdk-1" target="XRtyFWbsG8zuHKmCHHdk-9">
          <mxGeometry width="50" height="50" relative="1" as="geometry">
            <mxPoint x="261" y="137" as="sourcePoint" />
            <mxPoint x="311" y="87" as="targetPoint" />
          </mxGeometry>
        </mxCell>
        <mxCell id="XRtyFWbsG8zuHKmCHHdk-30" value="" style="endArrow=none;html=1;rounded=0;fontSize=12;startSize=8;endSize=8;curved=1;entryX=1;entryY=0.5;entryDx=0;entryDy=0;exitX=0.5;exitY=0;exitDx=0;exitDy=0;" edge="1" parent="1" source="XRtyFWbsG8zuHKmCHHdk-1" target="XRtyFWbsG8zuHKmCHHdk-10">
          <mxGeometry width="50" height="50" relative="1" as="geometry">
            <mxPoint x="261" y="137" as="sourcePoint" />
            <mxPoint x="311" y="87" as="targetPoint" />
          </mxGeometry>
        </mxCell>
        <mxCell id="XRtyFWbsG8zuHKmCHHdk-31" value="" style="endArrow=none;html=1;rounded=0;fontSize=12;startSize=8;endSize=8;curved=1;entryX=1;entryY=0.5;entryDx=0;entryDy=0;exitX=0.5;exitY=0;exitDx=0;exitDy=0;" edge="1" parent="1" source="XRtyFWbsG8zuHKmCHHdk-1" target="XRtyFWbsG8zuHKmCHHdk-20">
          <mxGeometry width="50" height="50" relative="1" as="geometry">
            <mxPoint x="261" y="137" as="sourcePoint" />
            <mxPoint x="311" y="87" as="targetPoint" />
          </mxGeometry>
        </mxCell>
        <mxCell id="XRtyFWbsG8zuHKmCHHdk-33" value="" style="ellipse;whiteSpace=wrap;html=1;fontSize=16;rotation=60;" vertex="1" parent="1">
          <mxGeometry x="-106" y="142.5" width="82" height="63" as="geometry" />
        </mxCell>
        <mxCell id="XRtyFWbsG8zuHKmCHHdk-34" value="" style="ellipse;whiteSpace=wrap;html=1;fontSize=16;rotation=50;" vertex="1" parent="1">
          <mxGeometry x="-134" y="218" width="82" height="63" as="geometry" />
        </mxCell>
        <mxCell id="XRtyFWbsG8zuHKmCHHdk-36" value="" style="ellipse;whiteSpace=wrap;html=1;fontSize=16;rotation=45;" vertex="1" parent="1">
          <mxGeometry x="-154" y="298" width="82" height="63" as="geometry" />
        </mxCell>
        <mxCell id="XRtyFWbsG8zuHKmCHHdk-39" value="" style="ellipse;whiteSpace=wrap;html=1;fontSize=16;rotation=130;" vertex="1" parent="1">
          <mxGeometry x="675" y="218" width="82" height="63" as="geometry" />
        </mxCell>
        <mxCell id="XRtyFWbsG8zuHKmCHHdk-40" value="" style="ellipse;whiteSpace=wrap;html=1;fontSize=16;rotation=130;" vertex="1" parent="1">
          <mxGeometry x="724" y="281" width="82" height="63" as="geometry" />
        </mxCell>
        <mxCell id="XRtyFWbsG8zuHKmCHHdk-42" value="" style="endArrow=none;html=1;rounded=0;fontSize=12;startSize=8;endSize=8;curved=1;exitX=1;exitY=0.5;exitDx=0;exitDy=0;entryX=0.5;entryY=0;entryDx=0;entryDy=0;" edge="1" parent="1" source="XRtyFWbsG8zuHKmCHHdk-33" target="XRtyFWbsG8zuHKmCHHdk-1">
          <mxGeometry width="50" height="50" relative="1" as="geometry">
            <mxPoint x="303" y="288" as="sourcePoint" />
            <mxPoint x="353" y="238" as="targetPoint" />
          </mxGeometry>
        </mxCell>
        <mxCell id="XRtyFWbsG8zuHKmCHHdk-43" value="" style="endArrow=none;html=1;rounded=0;fontSize=12;startSize=8;endSize=8;curved=1;exitX=1;exitY=0.5;exitDx=0;exitDy=0;entryX=0.5;entryY=0;entryDx=0;entryDy=0;" edge="1" parent="1" source="XRtyFWbsG8zuHKmCHHdk-34" target="XRtyFWbsG8zuHKmCHHdk-1">
          <mxGeometry width="50" height="50" relative="1" as="geometry">
            <mxPoint x="303" y="288" as="sourcePoint" />
            <mxPoint x="353" y="238" as="targetPoint" />
          </mxGeometry>
        </mxCell>
        <mxCell id="XRtyFWbsG8zuHKmCHHdk-44" value="" style="endArrow=none;html=1;rounded=0;fontSize=12;startSize=8;endSize=8;curved=1;exitX=1;exitY=0.5;exitDx=0;exitDy=0;entryX=0.5;entryY=0;entryDx=0;entryDy=0;" edge="1" parent="1" source="XRtyFWbsG8zuHKmCHHdk-36" target="XRtyFWbsG8zuHKmCHHdk-1">
          <mxGeometry width="50" height="50" relative="1" as="geometry">
            <mxPoint x="303" y="288" as="sourcePoint" />
            <mxPoint x="353" y="238" as="targetPoint" />
          </mxGeometry>
        </mxCell>
        <mxCell id="XRtyFWbsG8zuHKmCHHdk-45" value="" style="endArrow=none;html=1;rounded=0;fontSize=12;startSize=8;endSize=8;curved=1;entryX=1;entryY=0.5;entryDx=0;entryDy=0;exitX=0.5;exitY=0;exitDx=0;exitDy=0;" edge="1" parent="1" source="XRtyFWbsG8zuHKmCHHdk-1" target="XRtyFWbsG8zuHKmCHHdk-39">
          <mxGeometry width="50" height="50" relative="1" as="geometry">
            <mxPoint x="303" y="288" as="sourcePoint" />
            <mxPoint x="353" y="238" as="targetPoint" />
          </mxGeometry>
        </mxCell>
        <mxCell id="XRtyFWbsG8zuHKmCHHdk-46" value="" style="endArrow=none;html=1;rounded=0;fontSize=12;startSize=8;endSize=8;curved=1;entryX=1;entryY=0.5;entryDx=0;entryDy=0;exitX=0.5;exitY=0;exitDx=0;exitDy=0;" edge="1" parent="1" source="XRtyFWbsG8zuHKmCHHdk-1" target="XRtyFWbsG8zuHKmCHHdk-40">
          <mxGeometry width="50" height="50" relative="1" as="geometry">
            <mxPoint x="303" y="288" as="sourcePoint" />
            <mxPoint x="353" y="238" as="targetPoint" />
          </mxGeometry>
        </mxCell>
        <mxCell id="XRtyFWbsG8zuHKmCHHdk-47" value="商品&lt;br&gt;編號" style="text;strokeColor=none;fillColor=none;html=1;align=center;verticalAlign=middle;whiteSpace=wrap;rounded=0;fontSize=16;" vertex="1" parent="1">
          <mxGeometry x="-143" y="314.5" width="60" height="30" as="geometry" />
        </mxCell>
        <mxCell id="XRtyFWbsG8zuHKmCHHdk-48" value="商品&lt;br&gt;名稱" style="text;strokeColor=none;fillColor=none;html=1;align=center;verticalAlign=middle;whiteSpace=wrap;rounded=0;fontSize=16;" vertex="1" parent="1">
          <mxGeometry x="-123" y="237" width="60" height="30" as="geometry" />
        </mxCell>
        <mxCell id="XRtyFWbsG8zuHKmCHHdk-49" value="商品&lt;br&gt;圖片" style="text;strokeColor=none;fillColor=none;html=1;align=center;verticalAlign=middle;whiteSpace=wrap;rounded=0;fontSize=16;" vertex="1" parent="1">
          <mxGeometry x="-95" y="159" width="60" height="30" as="geometry" />
        </mxCell>
        <mxCell id="XRtyFWbsG8zuHKmCHHdk-54" value="最近&lt;br&gt;點擊&lt;br&gt;時間" style="text;strokeColor=none;fillColor=none;html=1;align=center;verticalAlign=middle;whiteSpace=wrap;rounded=0;fontSize=16;" vertex="1" parent="1">
          <mxGeometry x="686" y="234.5" width="60" height="30" as="geometry" />
        </mxCell>
        <mxCell id="XRtyFWbsG8zuHKmCHHdk-55" value="價格" style="text;strokeColor=none;fillColor=none;html=1;align=center;verticalAlign=middle;whiteSpace=wrap;rounded=0;fontSize=16;" vertex="1" parent="1">
          <mxGeometry x="735" y="297.5" width="60" height="30" as="geometry" />
        </mxCell>
      </root>
    </mxGraphModel>
  </diagram>
</mxfile>
